<svg width="18" height="18" viewBox="0 0 18 18" fill="none" xmlns="http://www.w3.org/2000/svg">
<mask id="path-1-inside-1" fill="white">
<path fill-rule="evenodd" clip-rule="evenodd" d="M9.52063 1.50227L11.2689 2.13618C12.0602 2.42309 12.5872 3.17471 12.5872 4.0164V8.71274C12.5872 9.17884 12.4412 9.63105 12.1732 9.99487C11.3053 11.1735 11.4733 10.8108 10.4177 11.6602C9.66525 12.2657 9.23597 12.7981 8.85534 13.7373C8.69369 14.1361 8.71426 14.5784 8.79754 15.0007C9.03373 16.1981 8.80163 17.3724 7.28623 16.6102C5.49687 15.7102 6.32233 12.6127 6.32233 10.9791C6.32233 9.85587 4.54908 10.6114 3.74768 10.6876C2.11629 10.8428 1.01604 10.538 0.952599 9.74829C0.837593 8.31672 1.79834 8.67273 1.05323 7.39126C0.723346 6.82391 1.21863 6.38515 1.46643 5.96682C1.79229 5.41672 1.2067 4.6707 1.54016 4.12517C1.69547 3.8711 1.89214 3.67891 2.05688 3.52471C2.27263 3.32276 2.31024 3.33096 2.38538 3.04515C2.56053 2.37898 2.91509 1.41009 3.59843 1.32334C5.57457 1.0725 7.91027 0.961356 9.52063 1.50227Z"/>
</mask>
<path d="M9.52063 1.50227L9.86151 0.56216L9.85032 0.558105L9.83905 0.554317L9.52063 1.50227ZM12.1732 9.99487L12.9785 10.5878L12.1732 9.99487ZM6.32233 10.9791H7.32233H6.32233ZM3.74768 10.6876L3.65296 9.69213L3.74768 10.6876ZM10.4177 11.6602L11.0446 12.4393L10.4177 11.6602ZM0.952599 9.74829L-0.0441897 9.82836L0.952599 9.74829ZM1.05323 7.39126L1.91772 6.8886L1.05323 7.39126ZM8.85534 13.7373L9.78211 14.1129L8.85534 13.7373ZM1.54016 4.12517L2.39338 4.64672L1.54016 4.12517ZM2.05688 3.52471L2.74024 4.25479L2.05688 3.52471ZM11.2689 2.13618L11.6098 1.19607L11.2689 2.13618ZM9.17976 2.44238L10.928 3.07629L11.6098 1.19607L9.86151 0.56216L9.17976 2.44238ZM11.5872 4.0164V8.71274H13.5872V4.0164H11.5872ZM11.5872 8.71274C11.5872 8.97269 11.5052 9.21562 11.368 9.4019L12.9785 10.5878C13.3771 10.0465 13.5872 9.38499 13.5872 8.71274H11.5872ZM7.73557 15.7169C7.39048 15.5433 7.14979 15.1038 7.13314 14.0539C7.12544 13.5684 7.16756 13.0486 7.21705 12.5137C7.26396 12.0068 7.32233 11.4463 7.32233 10.9791H5.32233C5.32233 11.3287 5.27751 11.768 5.22556 12.3294C5.1762 12.8629 5.12379 13.48 5.13339 14.0856C5.15135 15.2179 5.39262 16.7771 6.83689 17.5036L7.73557 15.7169ZM11.368 9.4019C10.9281 9.9993 10.8203 10.1051 10.7315 10.1779C10.6677 10.2303 10.6084 10.2698 10.4363 10.3921C10.2777 10.5047 10.0737 10.6535 9.79076 10.8811L11.0446 12.4393C11.2895 12.2422 11.4603 12.1178 11.5943 12.0227C11.7146 11.9372 11.8655 11.8345 12.0002 11.7241C12.3083 11.4712 12.5504 11.1691 12.9785 10.5878L11.368 9.4019ZM7.32233 10.9791C7.32233 10.7087 7.26869 10.4148 7.11059 10.141C6.94793 9.85924 6.71379 9.66684 6.46601 9.54772C6.02275 9.33463 5.5376 9.35632 5.22941 9.38921C4.88895 9.42554 4.5351 9.50627 4.26443 9.56838C3.9541 9.63958 3.77165 9.68083 3.65296 9.69213L3.84239 11.6831C4.12441 11.6563 4.46415 11.5745 4.71169 11.5177C4.9989 11.4518 5.23862 11.3996 5.44165 11.3779C5.67695 11.3528 5.68519 11.3915 5.59946 11.3502C5.53044 11.3171 5.4411 11.2493 5.37854 11.141C5.32055 11.0405 5.32233 10.9687 5.32233 10.9791H7.32233ZM3.65296 9.69213C2.89585 9.76416 2.36775 9.71596 2.06642 9.61972C1.77402 9.52633 1.93505 9.48979 1.94939 9.66821L-0.0441897 9.82836C0.0335863 10.7965 0.776465 11.3072 1.4579 11.5249C2.13041 11.7397 2.96812 11.7663 3.84239 11.6831L3.65296 9.69213ZM1.94939 9.66821C1.92979 9.42427 1.95939 9.31439 1.97387 9.27068C2.0009 9.18906 2.00885 9.19656 2.12262 8.98207C2.23309 8.7738 2.37449 8.44797 2.33095 8.00174C2.29355 7.61838 2.1286 7.25129 1.91772 6.8886L0.188742 7.89391C0.35041 8.17196 0.34479 8.24092 0.340402 8.19596C0.329882 8.08813 0.377986 8.00304 0.355783 8.0449C0.336882 8.08054 0.172776 8.34755 0.0753 8.64185C-0.0347321 8.97406 -0.0820963 9.35652 -0.0441897 9.82836L1.94939 9.66821ZM1.91772 6.8886C1.92379 6.89906 1.94545 6.94886 1.9433 7.01887C1.94154 7.07634 1.92487 7.09664 1.94204 7.06143C1.96176 7.02099 1.997 6.96415 2.07036 6.85928C2.12791 6.77701 2.23961 6.62369 2.32681 6.47648L0.606054 5.45717C0.569355 5.51912 0.526216 5.57752 0.43152 5.71289C0.352624 5.82568 0.2382 5.99242 0.144356 6.18489C-0.0680802 6.62057 -0.191628 7.23974 0.188742 7.89391L1.91772 6.8886ZM2.39338 4.64672C2.47343 4.51576 2.58409 4.40095 2.74024 4.25479L1.37352 2.79463C1.20019 2.95687 0.9175 3.22643 0.686935 3.60363L2.39338 4.64672ZM3.72436 2.31538C5.69819 2.06483 7.82892 1.98894 9.20222 2.45022L9.83905 0.554317C7.99162 -0.0662251 5.45095 0.080164 3.4725 0.331305L3.72436 2.31538ZM9.79076 10.8811C8.91972 11.5821 8.37962 12.2488 7.92856 13.3617L9.78211 14.1129C10.0923 13.3475 10.4108 12.9494 11.0446 12.4393L9.79076 10.8811ZM7.81644 15.1942C7.86464 15.4385 7.88277 15.6534 7.87519 15.8187C7.86696 15.9982 7.83235 16.0397 7.85121 16.0096C7.86589 15.9861 7.8998 15.9433 7.95909 15.9059C8.01969 15.8676 8.07437 15.8556 8.1018 15.853C8.13527 15.8499 8.03393 15.8669 7.73557 15.7169L6.83689 17.5036C7.29622 17.7346 7.79217 17.8907 8.28799 17.8443C8.84474 17.7923 9.28034 17.4957 9.54625 17.0711C9.78303 16.693 9.85687 16.264 9.87309 15.9103C9.88996 15.5425 9.84853 15.1615 9.77864 14.8071L7.81644 15.1942ZM7.92856 13.3617C7.66022 14.0237 7.71766 14.6933 7.81644 15.1942L9.77864 14.8071C9.71087 14.4636 9.72716 14.2485 9.78211 14.1129L7.92856 13.3617ZM2.32681 6.47648C2.53306 6.1283 2.57509 5.77575 2.56822 5.49891C2.56185 5.24183 2.50966 4.99289 2.48144 4.85023C2.39864 4.43168 2.46604 4.52785 2.39338 4.64672L0.686935 3.60363C0.280819 4.26802 0.474281 5.00996 0.519454 5.23833C0.555218 5.41913 0.567486 5.49394 0.568839 5.5485C0.569702 5.5833 0.562738 5.53029 0.606054 5.45717L2.32681 6.47648ZM3.35251 3.29942C3.43238 2.99565 3.53751 2.68986 3.66539 2.47036C3.80976 2.22255 3.85182 2.2992 3.72436 2.31538L3.4725 0.331305C2.6617 0.434227 2.18481 1.0387 1.93728 1.46356C1.67326 1.91674 1.51353 2.42848 1.41825 2.79088L3.35251 3.29942ZM1.41825 2.79088C1.4114 2.81692 1.40695 2.83204 1.40446 2.83999C1.40199 2.84784 1.40289 2.844 1.40749 2.83278C1.41244 2.82072 1.4215 2.8005 1.43567 2.77554C1.45027 2.74983 1.46677 2.72528 1.4841 2.70296C1.50076 2.68151 1.51436 2.66708 1.52019 2.6611C1.52495 2.65623 1.52487 2.65669 1.51321 2.66737C1.50773 2.67238 1.50107 2.67841 1.49194 2.68663C1.4874 2.69072 1.48275 2.6949 1.47739 2.69971C1.47218 2.70439 1.46647 2.70952 1.46052 2.71489C1.43647 2.73655 1.40705 2.76324 1.37352 2.79463L2.74024 4.25479C2.79508 4.20346 2.80133 4.19969 2.86411 4.14218C2.90786 4.10211 2.98675 4.02876 3.06362 3.9298C3.24024 3.7024 3.30877 3.46582 3.35251 3.29942L1.41825 2.79088ZM10.928 3.07629C11.3237 3.21974 11.5872 3.59555 11.5872 4.0164H13.5872C13.5872 2.75386 12.7967 1.62644 11.6098 1.19607L10.928 3.07629Z" fill="#3c91d4" mask="url(#path-1-inside-1)"/>
<path d="M15.3894 2.09555C16.1408 2.09555 16.7333 2.69044 16.7333 3.40388V8.82886C16.7333 9.54231 16.1408 10.1372 15.3894 10.1372H13.5456C12.7942 10.1372 12.2017 9.54231 12.2017 8.82886V3.40388C12.2017 2.69044 12.7942 2.09555 13.5456 2.09555H15.3894Z" stroke="#3c91d4"/>
</svg>
