<svg width="17" height="18" viewBox="0 0 17 18" fill="none" xmlns="http://www.w3.org/2000/svg">
<mask id="path-1-inside-1" fill="white">
<path fill-rule="evenodd" clip-rule="evenodd" d="M7.71264 16.0079L5.96437 15.374C5.17309 15.0871 4.64612 14.3355 4.64612 13.4938V8.79747C4.64612 8.33137 4.7921 7.87916 5.06003 7.51534C5.92799 6.3367 5.75997 6.69946 6.81557 5.84999C7.56802 5.24448 7.9973 4.71207 8.37794 3.77293C8.53958 3.3741 8.51901 2.93176 8.43573 2.50955C8.19955 1.31208 8.43165 0.13778 9.94704 0.899993C11.7364 1.80001 10.9109 4.89753 10.9109 6.53108C10.9109 7.65434 12.6842 6.89883 13.4856 6.82258C15.117 6.66736 16.2172 6.97221 16.2807 7.76192C16.3957 9.19349 15.4349 8.83748 16.18 10.119C16.5099 10.6863 16.0146 11.1251 15.7668 11.5434C15.441 12.0935 16.0266 12.8395 15.6931 13.385C15.5378 13.6391 15.3411 13.8313 15.1764 13.9855C14.9606 14.1874 14.923 14.1792 14.8479 14.4651C14.6727 15.1312 14.3182 16.1001 13.6348 16.1869C11.6587 16.4377 9.323 16.5489 7.71264 16.0079Z"/>
</mask>
<path d="M7.71264 16.0079L7.37176 16.948L7.38295 16.9521L7.39423 16.9559L7.71264 16.0079ZM5.06003 7.51534L4.25481 6.92236L5.06003 7.51534ZM10.9109 6.53108H9.91094H10.9109ZM13.4856 6.82258L13.5803 7.81808L13.4856 6.82258ZM6.81557 5.84999L6.18863 5.07092H6.18863L6.81557 5.84999ZM16.2807 7.76192L17.2775 7.68184L16.2807 7.76192ZM16.18 10.119L15.3156 10.6216L16.18 10.119ZM8.43573 2.50955L7.45464 2.70306L8.43573 2.50955ZM13.6348 16.1869L13.5089 15.1948L13.6348 16.1869ZM15.1764 13.9855L15.8598 14.7156L15.1764 13.9855ZM8.05351 15.0678L6.30524 14.4339L5.62349 16.3141L7.37176 16.948L8.05351 15.0678ZM5.64612 13.4938V8.79747H3.64612V13.4938H5.64612ZM5.64612 8.79747C5.64612 8.53752 5.72807 8.29459 5.86525 8.10831L4.25481 6.92236C3.85614 7.46373 3.64612 8.12521 3.64612 8.79747H5.64612ZM9.4977 1.79335C9.8428 1.96693 10.0835 2.40645 10.1001 3.45632C10.1078 3.94182 10.0657 4.4616 10.0162 4.99649C9.96931 5.50342 9.91094 6.06391 9.91094 6.53108H11.9109C11.9109 6.18147 11.9558 5.74219 12.0077 5.18077C12.0571 4.64732 12.1095 4.03018 12.0999 3.4246C12.0819 2.29232 11.8407 0.733071 10.3964 0.00663346L9.4977 1.79335ZM5.86525 8.10831C6.30519 7.5109 6.41299 7.40514 6.50175 7.3323C6.56557 7.27994 6.62485 7.2404 6.79701 7.11814C6.95556 7.00554 7.15957 6.85675 7.44251 6.62906L6.18863 5.07092C5.94377 5.26797 5.77294 5.39238 5.63898 5.4875C5.51863 5.57298 5.36774 5.67569 5.23312 5.78615C4.92501 6.03896 4.68283 6.34114 4.25481 6.92236L5.86525 8.10831ZM9.91094 6.53108C9.91094 6.80146 9.96459 7.09541 10.1227 7.36923C10.2853 7.65097 10.5195 7.84337 10.7673 7.96249C11.2105 8.17558 11.6957 8.15389 12.0039 8.121C12.3443 8.08466 12.6982 8.00394 12.9688 7.94183C13.2792 7.87063 13.4616 7.82937 13.5803 7.81808L13.3909 5.82707C13.1089 5.8539 12.7691 5.93569 12.5216 5.99248C12.2344 6.05838 11.9947 6.11062 11.7916 6.13229C11.5563 6.1574 11.5481 6.11875 11.6338 6.15996C11.7028 6.19314 11.7922 6.26087 11.8547 6.36923C11.9127 6.46967 11.9109 6.5415 11.9109 6.53108H9.91094ZM13.5803 7.81808C14.3374 7.74605 14.8655 7.79424 15.1669 7.89049C15.4593 7.98388 15.2982 8.02042 15.2839 7.842L17.2775 7.68184C17.1997 6.71371 16.4568 6.20296 15.7754 5.98531C15.1029 5.77051 14.2651 5.74389 13.3909 5.82707L13.5803 7.81808ZM15.2839 7.842C15.3035 8.08594 15.2739 8.19582 15.2594 8.23953C15.2324 8.32115 15.2244 8.31365 15.1107 8.52814C15.0002 8.73641 14.8588 9.06224 14.9023 9.50846C14.9397 9.89183 15.1047 10.2589 15.3156 10.6216L17.0445 9.61629C16.8829 9.33825 16.8885 9.26928 16.8929 9.31425C16.9034 9.42208 16.8553 9.50716 16.8775 9.46531C16.8964 9.42967 17.0605 9.16266 17.158 8.86836C17.268 8.53615 17.3154 8.15369 17.2775 7.68184L15.2839 7.842ZM15.3156 10.6216C15.3095 10.6112 15.2878 10.5613 15.29 10.4913C15.2917 10.4339 15.3084 10.4136 15.2912 10.4488C15.2715 10.4892 15.2363 10.5461 15.1629 10.6509C15.1054 10.7332 14.9937 10.8865 14.9065 11.0337L16.6272 12.053C16.6639 11.9911 16.7071 11.9327 16.8018 11.7973C16.8807 11.6845 16.9951 11.5178 17.0889 11.3253C17.3014 10.8896 17.4249 10.2705 17.0445 9.61629L15.3156 10.6216ZM14.8399 12.8635C14.7598 12.9944 14.6492 13.1093 14.493 13.2554L15.8598 14.7156C16.0331 14.5533 16.3158 14.2838 16.5463 13.9066L14.8399 12.8635ZM13.5089 15.1948C11.5351 15.4454 9.40435 15.5213 8.03105 15.06L7.39423 16.9559C9.24165 17.5764 11.7823 17.43 13.7608 17.1789L13.5089 15.1948ZM7.44251 6.62906C8.31355 5.92811 8.85365 5.26145 9.30471 4.14856L7.45116 3.39731C7.14095 4.1627 6.82249 4.56084 6.18863 5.07092L7.44251 6.62906ZM9.41683 2.31604C9.36864 2.07168 9.3505 1.85684 9.35808 1.69149C9.36631 1.51205 9.40092 1.47054 9.38206 1.50066C9.36738 1.5241 9.33347 1.56694 9.27418 1.60434C9.21358 1.64257 9.1589 1.65463 9.13147 1.65719C9.098 1.66032 9.19934 1.64328 9.4977 1.79335L10.3964 0.00663346C9.93705 -0.224404 9.4411 -0.380483 8.94528 -0.334123C8.38853 -0.282065 7.95293 0.0145353 7.68702 0.439128C7.45024 0.817221 7.3764 1.24618 7.36018 1.59988C7.34332 1.96769 7.38474 2.34868 7.45464 2.70306L9.41683 2.31604ZM9.30471 4.14856C9.57305 3.48647 9.51562 2.81687 9.41683 2.31604L7.45464 2.70306C7.5224 3.04665 7.50611 3.26173 7.45116 3.39731L9.30471 4.14856ZM14.9065 11.0337C14.7002 11.3819 14.6582 11.7345 14.665 12.0113C14.6714 12.2684 14.7236 12.5173 14.7518 12.66C14.8346 13.0785 14.7672 12.9824 14.8399 12.8635L16.5463 13.9066C16.9525 13.2422 16.759 12.5002 16.7138 12.2719C16.6781 12.0911 16.6658 12.0163 16.6644 11.9617C16.6636 11.9269 16.6705 11.9799 16.6272 12.053L14.9065 11.0337ZM13.8808 14.2108C13.8009 14.5146 13.6958 14.8203 13.5679 15.0398C13.4235 15.2877 13.3815 15.211 13.5089 15.1948L13.7608 17.1789C14.5716 17.076 15.0485 16.4715 15.296 16.0466C15.56 15.5935 15.7197 15.0817 15.815 14.7193L13.8808 14.2108ZM15.815 14.7193C15.8219 14.6933 15.8263 14.6782 15.8288 14.6702C15.8313 14.6624 15.8304 14.6662 15.8258 14.6774C15.8208 14.6895 15.8118 14.7097 15.7976 14.7347C15.783 14.7604 15.7665 14.7849 15.7492 14.8072C15.7325 14.8287 15.7189 14.8431 15.7131 14.8491C15.7083 14.854 15.7084 14.8535 15.7201 14.8428C15.7255 14.8378 15.7322 14.8318 15.7413 14.8236C15.7459 14.8195 15.7505 14.8153 15.7559 14.8105C15.7611 14.8058 15.7668 14.8007 15.7728 14.7953C15.7968 14.7737 15.8262 14.747 15.8598 14.7156L14.493 13.2554C14.4382 13.3067 14.4319 13.3105 14.3692 13.368C14.3254 13.4081 14.2465 13.4815 14.1697 13.5804C13.993 13.8078 13.9245 14.0444 13.8808 14.2108L15.815 14.7193ZM6.30524 14.4339C5.9096 14.2905 5.64612 13.9147 5.64612 13.4938H3.64612C3.64612 14.7563 4.43657 15.8838 5.62349 16.3141L6.30524 14.4339Z" fill="#e87f3e" mask="url(#path-1-inside-1)"/>
<path d="M1.84385 15.4147C1.09245 15.4147 0.5 14.8198 0.5 14.1063V8.68137C0.5 7.96792 1.09245 7.37304 1.84385 7.37304H3.6877C4.4391 7.37304 5.03155 7.96792 5.03155 8.68137V14.1063C5.03155 14.8198 4.4391 15.4147 3.6877 15.4147H1.84385Z" stroke="#e87f3e"/>
</svg>
