<svg width="28" height="20" viewBox="0 0 28 20" fill="none" xmlns="http://www.w3.org/2000/svg">
<path d="M27.4008 3.12941C27.0782 1.90588 26.1333 0.941176 24.935 0.611765C22.7457 0 13.9885 0 13.9885 0C13.9885 0 5.23128 0 3.04198 0.588235C1.86667 0.917647 0.898765 1.90588 0.576132 3.12941C0 5.36471 0 10 0 10C0 10 0 14.6588 0.576132 16.8706C0.898765 18.0941 1.84362 19.0588 3.04198 19.3882C5.25432 20 13.9885 20 13.9885 20C13.9885 20 22.7457 20 24.935 19.4118C26.1333 19.0824 27.0782 18.1176 27.4008 16.8941C27.977 14.6588 27.977 10.0235 27.977 10.0235C27.977 10.0235 28 5.36471 27.4008 3.12941Z" fill="#FF0000"/>
<path d="M11.2 14.2824L18.4823 10L11.2 5.71765V14.2824Z" fill="white"/>
</svg>
