<svg width="17" height="15" viewBox="0 0 17 15" fill="none" xmlns="http://www.w3.org/2000/svg">
<path fill-rule="evenodd" clip-rule="evenodd" d="M10.9286 12.1282C9.52046 13.1547 8.40618 13.8261 8.40618 13.8261C8.40618 13.8261 1.05664 9.41163 0.23481 5.91588C0.0939238 5.49012 0 5.01954 0 4.52655C0 2.82349 0.9862 1.34452 2.4655 0.560216C3.14645 0.201678 3.92132 0 4.74315 0C5.72044 0 6.62598 0.273844 7.37855 0.75046C7.76513 0.995289 8.11135 1.29362 8.40618 1.63583C8.70712 1.28653 9.05878 0.982941 9.4514 0.735305C10.1922 0.268044 11.0788 0 12.0457 0C12.891 0 13.6659 0.201678 14.3469 0.560216C15.8027 1.34452 16.7889 2.82349 16.7889 4.52655C16.7889 4.59769 16.7869 4.66791 16.7832 4.73732C16.6569 4.66833 15.9994 4.32712 14.721 3.96841C14.5549 3.29492 14.091 2.69701 13.4067 2.32551C13.0138 2.1203 12.5614 2 12.0457 2C11.1499 2 10.4112 2.37277 9.92138 2.94127L8.40618 4.69992L6.89098 2.94127C6.40802 2.38071 5.64948 2 4.74315 2C4.25326 2 3.79841 2.1192 3.39981 2.32857C2.51086 2.80095 2 3.63587 2 4.52655C2 4.76702 2.04627 5.02381 2.13356 5.28759L2.16143 5.37181L2.18173 5.45817C2.27231 5.84346 2.61896 6.47172 3.35332 7.29814C4.05208 8.08448 4.95045 8.88356 5.87241 9.61566C6.78713 10.342 7.68409 10.9702 8.35532 11.4183L8.40442 11.451L8.45096 11.4199C8.98343 11.0634 9.65845 10.5927 10.3715 10.0493L10.9286 10.9999V12.1282Z" fill="#F97537"/>
<path d="M17 11.1587C17 11.6887 16.7868 12.121 16.3604 12.4558C15.934 12.7905 15.3439 13.0017 14.5902 13.0894V14.5H14.0669V13.1133C13.6706 13.1053 13.2378 13.0615 12.7683 12.9818C12.3032 12.8981 11.9328 12.7965 11.6571 12.6769V12.0613C11.9801 12.2047 12.3656 12.3263 12.8135 12.4259C13.2658 12.5255 13.6836 12.5753 14.0669 12.5753V9.53885C13.4424 9.36352 12.9794 9.18818 12.6779 9.01285C12.3764 8.83752 12.1567 8.6303 12.0189 8.39121C11.8811 8.15212 11.8122 7.86123 11.8122 7.51853C11.8122 7.02441 12.0146 6.60998 12.4194 6.27525C12.8286 5.93654 13.3778 5.72734 14.0669 5.64764V4.5H14.5902V5.63568C15.4387 5.67155 16.1945 5.815 16.8578 6.06605L16.6446 6.604C16.0373 6.35694 15.3525 6.21349 14.5902 6.17364V9.0786C15.5076 9.3416 16.1386 9.62851 16.4831 9.93933C16.8277 10.2501 17 10.6566 17 11.1587ZM16.2893 11.1348C16.2893 10.7961 16.1536 10.5171 15.8823 10.298C15.6109 10.0748 15.1802 9.88354 14.5902 9.72415V12.5394C15.1156 12.4876 15.5291 12.3382 15.8306 12.0912C16.1364 11.8441 16.2893 11.5253 16.2893 11.1348ZM12.5164 7.51853C12.5164 7.86123 12.6391 8.14216 12.8846 8.36133C13.1301 8.58049 13.5242 8.76579 14.0669 8.91721V6.2095C13.5543 6.27326 13.1667 6.42469 12.904 6.66378C12.6456 6.90287 12.5164 7.18779 12.5164 7.51853Z" fill="#F97537"/>
</svg>
