<svg width="20" height="15" viewBox="0 0 20 15" fill="none" xmlns="http://www.w3.org/2000/svg">
<path d="M19.572 2.69059C19.3416 1.83412 18.6667 1.15882 17.8107 0.928235C16.2469 0.5 9.99177 0.5 9.99177 0.5C9.99177 0.5 3.73663 0.5 2.17284 0.911765C1.33333 1.14235 0.641975 1.83412 0.411523 2.69059C0 4.25529 0 7.5 0 7.5C0 7.5 0 10.7612 0.411523 12.3094C0.641975 13.1659 1.31687 13.8412 2.17284 14.0718C3.75309 14.5 9.99177 14.5 9.99177 14.5C9.99177 14.5 16.2469 14.5 17.8107 14.0882C18.6667 13.8576 19.3416 13.1824 19.572 12.3259C19.9835 10.7612 19.9835 7.51647 19.9835 7.51647C19.9835 7.51647 20 4.25529 19.572 2.69059Z" fill="#FF0000"/>
<path d="M8 10.4977L13.2016 7.5L8 4.50236V10.4977Z" fill="white"/>
</svg>
