<svg width="21" height="18" viewBox="0 0 21 18" fill="none" xmlns="http://www.w3.org/2000/svg">
<path fill-rule="evenodd" clip-rule="evenodd" d="M13.5 14.7271C11.7605 15.9736 10.3841 16.7889 10.3841 16.7889C10.3841 16.7889 1.30526 11.4284 0.290059 7.18357C0.116024 6.66657 0 6.09515 0 5.49652C0 3.42852 1.21825 1.63263 3.04562 0.680263C3.88679 0.244895 4.84398 0 5.85919 0C7.13774 0 8.31689 0.372972 9.27743 1.0164C9.68975 1.29259 10.0618 1.61862 10.3841 1.98637C10.7135 1.61057 11.092 1.27834 11.5114 0.998341C12.4584 0.365999 13.6135 0 14.88 0C15.9242 0 16.8814 0.244895 17.7226 0.680263C19.521 1.63263 20.7392 3.42852 20.7392 5.49652C20.7392 5.58293 20.7368 5.6682 20.7321 5.7525C20.5942 5.67836 19.9406 5.34451 18.6945 4.9663C18.5191 3.93339 17.8362 3.0066 16.795 2.45216C16.2398 2.16644 15.6006 2 14.88 2C13.6237 2 12.5783 2.51723 11.8882 3.30463L10.3841 5.02066L8.88005 3.30463C8.1967 2.52497 7.12594 2 5.85919 2C5.16983 2 4.52826 2.16538 3.96742 2.45517C2.72469 3.10389 2 4.25884 2 5.49652C2 5.83818 2.06669 6.19241 2.18554 6.5455L2.21426 6.63082L2.2352 6.71837C2.37074 7.28508 2.85487 8.11151 3.77919 9.134C4.66619 10.1152 5.79815 11.1036 6.94841 12.0015C8.09127 12.8936 9.21041 13.664 10.0468 14.2128C10.1648 14.2902 10.2769 14.363 10.3824 14.431C10.4868 14.3635 10.5977 14.2912 10.7144 14.2144C11.3605 13.7891 12.1758 13.2308 13.0403 12.5859L13.5 13.357V14.7271Z" fill="#F97537"/>
<path d="M21 13.5498C21 14.1934 20.7367 14.7184 20.2099 15.1249C19.6832 15.5313 18.9543 15.7878 18.0232 15.8942V17.6071H17.3768V15.9233C16.8873 15.9136 16.3526 15.8603 15.7727 15.7636C15.1981 15.662 14.7405 15.5386 14.4 15.3934V14.6458C14.7991 14.82 15.2752 14.9676 15.8286 15.0886C16.3872 15.2095 16.9033 15.27 17.3768 15.27V11.5829C16.6053 11.37 16.0334 11.1571 15.661 10.9442C15.2885 10.7313 15.0172 10.4796 14.8469 10.1893C14.6767 9.899 14.5916 9.54577 14.5916 9.12964C14.5916 8.52963 14.8416 8.0264 15.3417 7.61994C15.8472 7.20865 16.5255 6.95462 17.3768 6.85784V5.46428H18.0232V6.84332C19.0714 6.88687 20.0051 7.06107 20.8244 7.36591L20.5611 8.01914C19.8109 7.71914 18.965 7.54494 18.0232 7.49656V11.024C19.1565 11.3434 19.9359 11.6918 20.3616 12.0692C20.7872 12.4466 21 12.9402 21 13.5498ZM20.1222 13.5208C20.1222 13.1095 19.9546 12.7708 19.6194 12.5047C19.2842 12.2337 18.7521 12.0014 18.0232 11.8079V15.2265C18.6723 15.1636 19.1831 14.9821 19.5555 14.6821C19.9333 14.3821 20.1222 13.995 20.1222 13.5208ZM15.4615 9.12964C15.4615 9.54577 15.6131 9.8869 15.9163 10.153C16.2196 10.4192 16.7064 10.6442 17.3768 10.828V7.54011C16.7437 7.61753 16.2648 7.8014 15.9403 8.09172C15.6211 8.38205 15.4615 8.72802 15.4615 9.12964Z" fill="#F97537"/>
</svg>
