<?xml version="1.0" encoding="UTF-8"?>
<!DOCTYPE svg PUBLIC "-//W3C//DTD SVG 1.1//EN" "http://www.w3.org/Graphics/SVG/1.1/DTD/svg11.dtd">
<svg xmlns="http://www.w3.org/2000/svg">
<symbol id="icon-diz-like" viewBox="0 0 18 18">
	<mask id="icon-diz-like-a" fill="#fff">
		<path fill-rule="evenodd" d="M9.52 1.502l1.749.634a2 2 0 011.318 1.88v4.697c0 .466-.146.918-.414 1.282-.868 1.179-.7.816-1.755 1.665-.753.606-1.182 1.138-1.563 2.077-.161.4-.14.841-.057 1.264.236 1.197.004 2.371-1.512 1.61-1.79-.9-.964-3.998-.964-5.632 0-1.123-1.773-.368-2.574-.291-1.632.155-2.732-.15-2.795-.94-.115-1.431.845-1.075.1-2.357-.33-.567.166-1.006.413-1.424.326-.55-.26-1.296.074-1.842.155-.254.352-.446.517-.6.216-.202.253-.194.328-.48.176-.666.53-1.635 1.213-1.722 1.977-.25 4.312-.362 5.923.18z" clip-rule="evenodd"/>
	</mask>
	<path fill="#3c91d4" d="M9.52 1.502l.342-.94L9.85.558 9.84.554l-.32.948zm2.653 8.493l.806.593-.806-.593zm-5.85.984h1-1zm-2.575-.291l-.095-.996.095.996zm6.67.972l.627.78-.627-.78zM.953 9.748l-.997.08.997-.08zm.1-2.357l.865-.502-.865.502zm7.802 6.346l.927.376-.927-.376zM1.54 4.125l.853.522-.853-.522zm.517-.6l.683.73-.683-.73zm9.212-1.389l.34-.94-.34.94zm-2.09.306l1.749.634.682-1.88L9.862.562l-.682 1.88zm2.408 1.574v4.697h2V4.016h-2zm0 4.697c0 .26-.082.503-.219.689l1.61 1.186a3.166 3.166 0 00.61-1.875h-2zm-3.851 7.004c-.346-.174-.586-.613-.603-1.663-.008-.486.035-1.005.084-1.54.047-.507.105-1.068.105-1.535h-2c0 .35-.044.789-.096 1.35a16.45 16.45 0 00-.093 1.757c.018 1.132.26 2.691 1.704 3.418l.899-1.787zm3.632-6.315c-.44.597-.548.703-.636.776-.064.052-.124.092-.296.214a12.86 12.86 0 00-.645.49l1.254 1.557c.245-.197.415-.321.55-.416.12-.086.27-.188.405-.299.308-.253.55-.555.979-1.136l-1.611-1.186zm-4.046 1.577c0-.27-.053-.564-.211-.838a1.474 1.474 0 00-.645-.593c-.443-.213-.928-.192-1.237-.159-.34.037-.694.117-.965.18-.31.07-.492.112-.611.123l.19 1.991c.281-.027.621-.108.869-.165.287-.066.527-.118.73-.14.235-.025.243.014.157-.028a.527.527 0 01-.22-.209c-.058-.1-.057-.172-.057-.162h2zM3.653 9.692c-.757.072-1.285.024-1.587-.072-.292-.094-.13-.13-.117.048l-1.993.16c.078.969.82 1.48 1.502 1.697.672.215 1.51.241 2.384.158l-.189-1.99zm-1.704-.024c-.02-.244.01-.354.025-.397.027-.082.035-.074.149-.289.11-.208.251-.534.208-.98-.037-.384-.202-.75-.413-1.113L.188 7.894c.162.278.157.347.152.302-.01-.108.038-.193.016-.151-.02.036-.183.303-.28.597-.11.332-.158.715-.12 1.186l1.993-.16zm-.031-2.78c.006.011.027.06.025.13-.001.058-.018.079-.001.043.02-.04.055-.097.128-.202.058-.082.17-.235.257-.383L.607 5.457c-.038.062-.08.12-.175.256a3.52 3.52 0 00-.288.472C-.068 6.62-.192 7.24.19 7.894l1.729-1.005zm.475-2.241c.08-.131.191-.246.347-.392l-1.366-1.46a3.87 3.87 0 00-.687.809l1.706 1.043zm1.331-2.332c1.974-.25 4.105-.326 5.478.135L9.84.554C7.992-.066 5.451.08 3.472.331l.252 1.984zm6.067 8.566c-.871.701-1.411 1.368-1.862 2.48l1.853.752c.31-.765.629-1.164 1.263-1.674L9.79 10.881zm-1.975 4.313c.049.244.067.46.06.625-.009.18-.044.22-.025.19a.346.346 0 01.108-.103.34.34 0 01.143-.053c.033-.003-.068.014-.366-.136l-.9 1.787c.46.23.956.387 1.452.34a1.635 1.635 0 001.258-.773c.237-.378.31-.807.327-1.16a4.682 4.682 0 00-.094-1.104l-1.963.387zm.113-1.832c-.269.662-.211 1.331-.113 1.832l1.963-.387c-.068-.343-.052-.559.003-.694l-1.853-.751zM2.327 6.476c.206-.348.248-.7.241-.977-.006-.257-.058-.506-.087-.649-.082-.418-.015-.322-.088-.203L.687 3.604C.28 4.268.474 5.01.519 5.238c.036.181.048.256.05.31 0 .035-.006-.018.037-.09l1.72 1.018zM3.353 3.3c.08-.303.185-.61.312-.829.145-.247.187-.17.06-.155L3.472.331c-.811.103-1.288.708-1.536 1.133-.264.453-.423.964-.519 1.327l1.935.508zm-1.935-.508a1.158 1.158 0 01-.014.049c-.002.008-.001.004.003-.007a.51.51 0 01.077-.13.502.502 0 01.036-.042l-.007.006a3.831 3.831 0 01-.052.048 6.004 6.004 0 00-.087.08l1.366 1.46c.055-.052.061-.055.124-.113.044-.04.123-.113.2-.212.176-.228.245-.464.289-.63l-1.935-.51zm9.51.285a1 1 0 01.66.94h2a3 3 0 00-1.978-2.82l-.682 1.88z" mask="url(#icon-diz-like-a)"/>
	<path stroke="#3c91d4" d="M15.39 2.096c.75 0 1.343.594 1.343 1.308v5.425c0 .713-.592 1.308-1.344 1.308h-1.843c-.752 0-1.344-.595-1.344-1.308V3.404c0-.714.592-1.308 1.344-1.308h1.843z"/>
</symbol>
<symbol id="icon-like" viewBox="0 0 17 18">
	<mask id="icon-like-a" fill="#fff">
		<path fill-rule="evenodd" d="M7.713 16.008l-1.749-.634a2 2 0 01-1.318-1.88V8.797c0-.466.146-.918.414-1.282.868-1.178.7-.816 1.756-1.665.752-.606 1.181-1.138 1.562-2.077.162-.399.141-.841.058-1.263C8.2 1.312 8.432.138 9.947.9c1.79.9.964 3.998.964 5.631 0 1.123 1.773.368 2.575.292 1.631-.156 2.731.15 2.795.939.115 1.431-.846 1.075-.101 2.357.33.567-.165 1.006-.413 1.424-.326.55.26 1.296-.074 1.842a2.895 2.895 0 01-.517.6c-.215.202-.253.194-.328.48-.175.666-.53 1.635-1.213 1.722-1.976.25-4.312.362-5.922-.18z" clip-rule="evenodd"/>
	</mask>
	<path fill="#e87f3e" d="M7.713 16.008l-.341.94.011.004.011.004.319-.948zM5.06 7.515l-.805-.593.805.593zm5.85-.984h-1 1zm2.576.292l.094.995-.094-.995zm-6.67-.973l-.627-.78.627.78zm9.465 1.912l.997-.08-.997.08zm-.101 2.357l-.864.503.864-.503zm-7.744-7.61l-.981.194.98-.193zm5.199 13.678l-.126-.992.126.992zm1.541-2.202l.684.73-.684-.73zm-7.122 1.083l-1.749-.634-.682 1.88 1.749.634.682-1.88zm-2.408-1.574V8.797h-2v4.697h2zm0-4.697c0-.26.082-.502.22-.689L4.254 6.922a3.166 3.166 0 00-.609 1.875h2zm3.852-7.004c.345.174.586.613.602 1.663.008.486-.034 1.006-.084 1.54-.047.507-.105 1.068-.105 1.535h2c0-.35.045-.789.097-1.35.05-.534.102-1.15.092-1.756-.018-1.133-.26-2.692-1.704-3.418l-.898 1.786zM5.865 8.108c.44-.597.548-.703.637-.776.064-.052.123-.092.295-.214.159-.112.363-.261.646-.489L6.189 5.071c-.245.197-.416.321-.55.417-.12.085-.271.188-.406.298-.308.253-.55.555-.978 1.136l1.61 1.186zm4.046-1.577c0 .27.054.564.212.838.162.282.397.474.644.593.444.214.929.192 1.237.159.34-.036.694-.117.965-.18.31-.07.493-.112.611-.123l-.19-1.99c-.281.026-.62.108-.868.164a6.616 6.616 0 01-.73.14c-.236.025-.244-.013-.158.028.069.033.158.1.22.21.059.1.057.171.057.161h-2zm3.67 1.287c.756-.072 1.285-.024 1.586.072.292.094.131.13.117-.048l1.993-.16c-.077-.968-.82-1.479-1.502-1.697-.672-.214-1.51-.241-2.384-.158l.19 1.991zm1.703.024c.02.244-.01.354-.025.398-.027.081-.035.074-.148.288-.11.208-.252.534-.209.98.038.384.203.75.414 1.114l1.728-1.006c-.161-.278-.155-.347-.151-.302.01.108-.038.193-.015.151.018-.035.183-.302.28-.597.11-.332.157-.714.12-1.186l-1.994.16zm.032 2.78a.273.273 0 01-.026-.13c.002-.058.018-.078.001-.043-.02.04-.055.097-.128.202-.058.082-.17.236-.257.383l1.721 1.019c.037-.062.08-.12.175-.256.079-.113.193-.28.287-.472.212-.435.336-1.054-.044-1.709l-1.73 1.006zm-.476 2.242c-.08.13-.19.245-.347.391l1.367 1.46c.173-.162.456-.431.686-.808l-1.706-1.043zm-1.331 2.33c-1.974.251-4.105.327-5.478-.134l-.637 1.896c1.848.62 4.388.474 6.367.223l-.252-1.984zM7.443 6.63c.87-.7 1.41-1.368 1.862-2.48L7.45 3.397c-.31.766-.629 1.164-1.262 1.674l1.254 1.558zm1.974-4.313a2.707 2.707 0 01-.059-.625c.008-.179.043-.22.024-.19a.346.346 0 01-.108.103.34.34 0 01-.143.053c-.033.003.068-.014.367.136l.898-1.786c-.459-.231-.955-.387-1.45-.341a1.635 1.635 0 00-1.259.773c-.237.378-.31.807-.327 1.16-.017.369.025.75.095 1.104l1.962-.387zm-.112 1.833c.268-.663.21-1.332.112-1.833l-1.962.387c.067.344.051.559-.004.694l1.854.752zm5.601 6.885c-.206.348-.248.7-.241.977.006.257.059.506.087.649.083.418.015.322.088.204l1.706 1.043c.407-.665.213-1.407.168-1.635a2.122 2.122 0 01-.05-.31c0-.035.006.018-.037.091l-1.72-1.02zm-1.025 3.177c-.08.304-.185.61-.313.829-.144.248-.186.171-.06.155l.253 1.984c.81-.103 1.288-.707 1.535-1.132.264-.454.424-.965.519-1.328l-1.934-.508zm1.934.508l.014-.049c.002-.008.001-.004-.003.007a.514.514 0 01-.077.13.513.513 0 01-.036.042l.007-.006.021-.02.015-.013.017-.015.087-.08-1.367-1.46c-.055.052-.061.055-.124.113a1.7 1.7 0 00-.2.212 1.673 1.673 0 00-.288.63l1.934.51zm-9.51-.285a1 1 0 01-.659-.94h-2a3 3 0 001.977 2.82l.682-1.88z" mask="url(#icon-like-a)"/>
	<path stroke="#e87f3e" d="M1.844 15.415C1.092 15.415.5 14.82.5 14.106V8.681c0-.713.592-1.308 1.344-1.308h1.844c.751 0 1.344.595 1.344 1.308v5.425c0 .714-.593 1.309-1.344 1.309H1.844z"/>
</symbol>
<symbol id="icon-pause" viewBox="0 0 11 14">
	<rect width="3" height="14" fill="#666" rx="1"/>
	<rect width="3" height="14" x="8" fill="#666" rx="1"/>
</symbol>
<symbol id="icon-play" viewBox="0 0 13 14">
	<path fill="#666" fill-rule="evenodd" d="M.868 1.307a1 1 0 011.51-.86l9.616 5.693a1 1 0 010 1.72l-9.616 5.694a1 1 0 01-1.51-.86V1.306z" clip-rule="evenodd"/>
</symbol>
</svg>